# xmcd CD database file
#
# Track frame offsets:
#	150
#	21110
#	38882
#	58265
#	75362
#	109820
#
# Disc length: 1760 seconds
#
# Revision: 0
# Processed by: cddbd v1.4PL0 Copyright (c) Steve Scherf et al.
# Submitted via: CDex 1.40Release
#
DISCID=4306de06
DTITLE=LeAnn Rimes - Commitment
DYEAR=1998
DGENRE=Blues
TTITLE0=Commitment
TTITLE1=How Do I Live (Mr Mig Remix) (Dance Radio Edit)
TTITLE2=How Do I Live (Mr Mig Remix) (Club Radio Edit)
TTITLE3=How Do I Live (RH Factor Radio Edit)
TTITLE4=How Do I Live (Mr Mig Remix) (Club Mix)
TTITLE5=How Do I Live (Original Ectended Mix)
EXTD=YEAR: 1998 ID3G: 0
EXTT0=
EXTT1=
EXTT2=
EXTT3=
EXTT4=
EXTT5=
PLAYORDER=
